0.06m3min_grf.mot
version=1
nRows=12
nColumns 19
inDegrees=yes
endheader
time	1_ground_force_vx	1_ground_force_vy	1_ground_force_vz	1_ground_force_px	1_ground_force_py	1_ground_force_pz	1_ground_torque_x	1_ground_torque_y	1_ground_torque_z	2_ground_force_vx	2_ground_force_vy	2_ground_force_vz	2_ground_force_px	2_ground_force_py	2_ground_force_pz	2_ground_torque_x	2_ground_torque_y	2_ground_torque_z
            0.005000	            0.366523	            4.325464	            0.246920	           -0.237272	            0.006250	           -0.411723	            0.325516	           -0.240249	            0.051242	            0.041916	            1.112758	           -2.154770	           -0.261913	            0.005684	           -0.738548	           -0.150390	            0.000331	           -0.244989
            0.005500	            0.229321	            3.784247	            0.336655	           -0.237272	            0.006250	           -0.411723	            0.359530	           -0.240383	            0.064110	            0.602224	            1.666396	           -1.918398	           -0.261913	            0.005684	           -0.738548	           -0.187884	           -0.018777	           -0.226190
            0.006000	            0.321217	            4.504738	            0.477087	           -0.237272	            0.006250	           -0.411723	            0.428200	           -0.212432	            0.030347	            0.368783	            1.480230	           -1.590458	           -0.261913	            0.005684	           -0.738548	           -0.093872	           -0.046661	           -0.264032
            0.006500	            0.046174	            5.045285	            0.525944	           -0.237272	            0.006250	           -0.411723	            0.388504	           -0.175913	            0.094047	            0.461798	            1.664884	           -1.636769	           -0.261913	            0.005684	           -0.738548	           -0.206636	           -0.028297	           -0.226216
            0.007000	            0.274885	            4.685781	            0.294550	           -0.237272	            0.006250	           -0.411723	            0.323219	           -0.203155	            0.009888	            0.462401	            1.481238	           -1.778211	           -0.261913	            0.005684	           -0.738548	           -0.169287	            0.037873	           -0.188295
            0.007500	            0.366167	            3.785453	            0.061178	           -0.237272	            0.006250	           -0.411723	            0.314771	           -0.230773	           -0.005066	            0.230186	            0.927613	           -1.686226	           -0.261913	            0.005684	           -0.738548	           -0.244479	            0.047188	           -0.225930
            0.008000	            0.366409	            4.325661	            0.201065	           -0.237272	            0.006250	           -0.411723	            0.346282	           -0.194111	            0.070186	            0.182466	            1.113266	           -2.154830	           -0.261913	            0.005684	           -0.738548	           -0.187884	           -0.018777	           -0.226190
            0.008500	            0.686987	            3.605446	            0.013753	           -0.237272	            0.006250	           -0.411723	            0.391968	           -0.249099	            0.008353	            0.183131	            0.929117	           -2.155487	           -0.261913	            0.005684	           -0.738548	           -0.244284	           -0.000277	           -0.169548
            0.009000	            0.229075	            4.505506	            0.293891	           -0.237272	            0.006250	           -0.411723	            0.379833	           -0.203488	            0.082990	            0.181240	            1.480725	           -1.918875	           -0.261913	            0.005684	           -0.738548	           -0.187764	           -0.056453	           -0.264025
            0.009500	           -0.137848	            4.866164	            0.250491	           -0.237272	            0.006250	           -0.411723	            0.381471	           -0.203577	            0.048537	            0.365960	            2.218163	           -1.963255	           -0.261913	            0.005684	           -0.738548	           -0.169091	           -0.018776	           -0.207348
            0.010000	           -0.091370	            4.504658	            0.478111	           -0.237272	            0.006250	           -0.411723	            0.278015	           -0.148027	            0.032202	            0.369345	            1.296919	           -1.825756	           -0.261913	            0.005684	           -0.738548	           -0.206679	           -0.009594	           -0.169598
            0.010500	            0.138315	            5.044516	            0.709140	           -0.237272	            0.006250	           -0.411723	            0.305557	           -0.175800	            0.079365	            0.323886	            0.927951	           -1.686266	           -0.261913	            0.005684	           -0.738548	           -0.131717	            0.038008	           -0.188311
